<svg xmlns="http://www.w3.org/2000/svg" xmlns:xlink="http://www.w3.org/1999/xlink" width="500" zoomAndPan="magnify" viewBox="0 0 375 149.999998" height="200" preserveAspectRatio="xMidYMid meet" version="1.0"><path stroke-linecap="butt" transform="matrix(0.750367, 0, 0, 0.750367, -7.765251, -119.45953)" fill="none" stroke-linejoin="miter" d="M 106.676463 232.134492 C 105.687363 233.316205 104.068364 234.003368 101.82467 234.201188 " stroke="#fd490f" stroke-width="2" stroke-opacity="1" stroke-miterlimit="4"/><path stroke-linecap="butt" transform="matrix(0.750367, 0, 0, 0.750367, -7.765251, -119.45953)" fill="none" stroke-linejoin="miter" d="M 201.879872 232.301077 C 202.062074 252.525552 201.838226 265.529603 202.85856 277.90896 C 202.921029 278.679416 203.332286 279.002174 204.097537 278.877236 L 207.486503 278.335834 C 208.007082 278.257747 208.277783 277.955812 208.303811 277.430027 C 208.751509 268.20017 208.907683 258.444529 208.761921 248.152692 C 208.694245 242.697029 209.292911 236.293914 210.339274 230.624814 C 210.396537 230.312467 210.583946 230.125059 210.901499 230.073001 L 225.810869 227.683545 C 226.18048 227.626282 226.253361 227.449285 226.029512 227.142144 C 224.66039 225.247238 222.479166 224.180052 219.491045 223.945792 C 208.866036 223.076426 196.871906 223.747972 187.902337 223.852088 C 186.309367 223.867705 185.330679 224.705836 184.961068 226.376893 C 184.924628 226.559096 184.898599 226.840208 184.893393 227.22023 C 184.836129 228.781966 185.580557 229.437895 187.116264 229.182811 C 192.066966 228.381121 196.825054 229.151577 201.390528 231.504592 C 201.713287 231.671177 201.879872 231.936672 201.879872 232.301077 " stroke="#07346a" stroke-width="2" stroke-opacity="1" stroke-miterlimit="4"/><path stroke-linecap="butt" transform="matrix(0.750367, 0, 0, 0.750367, -7.765251, -119.45953)" fill="none" stroke-linejoin="miter" d="M 291.086216 250.500501 C 288.368796 252.265262 286.437449 253.327243 285.286971 253.681236 C 278.316424 255.805196 274.583875 256.966086 274.078914 257.163906 C 271.522873 258.132182 269.456176 259.527333 267.868412 261.349357 C 266.389968 263.051649 265.728834 265.264108 265.885007 267.991939 C 266.207766 273.411161 269.133418 276.977124 274.672374 278.684622 C 282.741341 281.188604 292.710421 279.022998 297.156162 271.34967 C 298.337875 269.309003 298.941747 266.695699 298.96257 263.504552 C 298.988599 256.950469 298.853248 251.723861 298.551313 247.824728 C 297.983882 240.245105 293.090443 238.131556 286.244835 236.465705 C 285.141209 236.20021 283.943878 236.20021 282.647637 236.465705 C 282.392554 236.512557 281.184812 236.705171 279.034822 237.038341 C 275.323097 237.616183 271.965365 239.047774 268.961627 241.327908 C 268.72216 241.515316 268.602427 241.754782 268.602427 242.056718 L 268.602427 242.494004 C 268.602427 242.93129 268.82107 243.12911 269.258356 243.097875 C 272.308947 242.853203 273.943564 242.697029 274.162207 242.63456 C 280.565323 240.984326 287.509841 240.442925 292.262724 244.670022 C 293.001945 245.331157 293.262234 246.460812 293.038386 248.058988 C 292.923858 248.917943 292.273135 249.735251 291.086216 250.500501 " stroke="#07346a" stroke-width="2" stroke-opacity="1" stroke-miterlimit="4"/><path stroke-linecap="butt" transform="matrix(0.750367, 0, 0, 0.750367, -7.765251, -119.45953)" fill="none" stroke-linejoin="miter" d="M 334.747141 260.860013 C 338.854506 259.48048 342.623495 258.491381 346.980737 258.345619 C 351.197424 258.205063 356.189772 258.116565 361.957783 258.080124 C 362.176426 258.080124 362.358628 258.007243 362.514802 257.85107 C 362.66577 257.700102 362.743856 257.512694 362.743856 257.294051 C 362.775091 244.987575 356.882142 236.028419 343.12325 237.100811 C 333.383225 237.855649 327.875504 242.910467 326.605292 252.270468 C 325.470431 260.542461 326.922845 271.729693 334.887697 276.326401 C 343.164896 281.100106 350.937134 280.334855 358.220029 274.025444 C 358.391819 273.884888 359.146658 272.885377 360.500163 271.026912 C 360.708394 270.730182 360.7136 270.433452 360.51578 270.126311 C 360.422076 269.980549 360.302343 269.866022 360.151375 269.777523 C 359.849439 269.595321 359.542298 269.569292 359.219539 269.694231 C 353.383854 271.958747 350.31244 273.14046 350.005299 273.249782 C 345.091037 274.926045 339.005473 273.936946 335.663359 269.52244 C 334.361913 267.804531 333.555016 265.711805 333.242669 263.239057 C 333.180199 262.713273 333.284315 262.229135 333.570633 261.781437 C 333.851746 261.33374 334.24218 261.026599 334.747141 260.860013 " stroke="#07346a" stroke-width="2" stroke-opacity="1" stroke-miterlimit="4"/><path stroke-linecap="butt" transform="matrix(0.750367, 0, 0, 0.750367, -7.765251, -119.45953)" fill="none" stroke-linejoin="miter" d="M 414.301958 274.113942 C 415.124472 274.134765 415.946986 274.046267 416.759089 273.853653 C 417.565986 273.655833 418.357265 273.364309 419.127721 272.96867 C 419.898178 272.567824 420.632194 272.07848 421.329769 271.495432 C 422.027344 270.907179 422.672862 270.240838 423.271527 269.491205 C 423.870192 268.741572 424.406388 267.924264 424.88532 267.034075 C 425.359047 266.149091 425.765098 265.21205 426.103474 264.222951 C 426.436645 263.233851 426.696934 262.208312 426.879136 261.156743 C 427.061339 260.099969 427.165455 259.032783 427.186278 257.955185 C 427.212307 256.877588 427.155043 255.810402 427.014487 254.748422 C 426.873931 253.686442 426.660493 252.655696 426.363764 251.65098 C 426.07224 250.651469 425.702629 249.693605 425.265343 248.787798 C 424.828057 247.881991 424.323096 247.04386 423.760871 246.268198 C 423.19344 245.492536 422.573952 244.800167 421.902405 244.185884 C 421.230859 243.571601 420.517666 243.051023 419.762827 242.624148 C 419.013194 242.192068 418.232326 241.864104 417.430635 241.640255 C 416.628944 241.411201 415.816842 241.291467 414.989122 241.270644 C 414.166608 241.255027 413.349299 241.343525 412.537197 241.536139 C 411.725094 241.728753 410.933815 242.025483 410.163358 242.421123 C 409.398108 242.816762 408.664092 243.306106 407.966517 243.89436 C 407.268942 244.477408 406.623424 245.143748 406.024759 245.893381 C 405.426093 246.64822 404.884692 247.465529 404.410965 248.350512 C 403.932033 249.240701 403.525982 250.177743 403.192811 251.166842 C 402.854435 252.155941 402.599352 253.176275 402.411944 254.233049 C 402.229741 255.284618 402.130831 256.351804 402.104802 257.429401 C 402.083979 258.506999 402.141243 259.57939 402.281799 260.641371 C 402.417149 261.703351 402.635792 262.734096 402.927316 263.733607 C 403.224046 264.738323 403.588451 265.690982 404.030943 266.596789 C 404.468229 267.502595 404.967984 268.345932 405.535415 269.121594 C 406.102846 269.897256 406.722334 270.589626 407.39388 271.203908 C 408.065427 271.818191 408.778619 272.33877 409.528253 272.765644 C 410.283092 273.192518 411.058754 273.520483 411.86565 273.749537 C 412.667341 273.978592 413.479444 274.098325 414.301958 274.113942 " stroke="#07346a" stroke-width="2" stroke-opacity="1" stroke-miterlimit="4"/><path stroke-linecap="butt" transform="matrix(0.750367, 0, 0, 0.750367, -7.765251, -119.45953)" fill="none" stroke-linejoin="miter" d="M 465.495655 241.27585 C 469.582197 244.279588 471.622865 248.595184 471.617659 254.222638 C 471.617659 255.289823 471.737392 262.551894 471.971652 275.998436 C 471.976858 276.258726 472.054945 276.48778 472.205913 276.696012 C 472.35688 276.899037 472.549494 277.044799 472.788961 277.122886 L 476.776592 278.481596 C 477.312788 278.658593 477.609518 278.465979 477.661576 277.898548 C 478.671498 267.518213 478.629852 258.158211 477.541843 249.818543 C 476.313278 240.442925 467.775789 236.168975 458.951982 237.303836 C 457.192427 237.522479 454.979968 238.084704 452.3094 238.99051 C 444.781833 241.525728 443.371066 247.507175 443.261744 254.670335 C 443.183657 259.397188 443.173246 267.221483 443.230509 278.14322 C 443.230509 278.335834 443.298185 278.492007 443.428329 278.627358 C 443.56368 278.762708 443.725059 278.830383 443.912467 278.830383 L 447.140054 278.830383 C 447.556517 278.830383 447.920922 278.695033 448.233269 278.419126 C 448.545617 278.14322 448.727819 277.799638 448.785083 277.388381 C 449.857475 269.45997 449.716918 259.829268 449.940767 253.57712 C 450.268732 244.456585 456.036742 240.698008 464.579437 240.963503 C 464.917813 240.968709 465.224954 241.072825 465.495655 241.27585 " stroke="#07346a" stroke-width="2" stroke-opacity="1" stroke-miterlimit="4"/><path stroke-linecap="butt" transform="matrix(0.750367, 0, 0, 0.750367, -7.765251, -119.45953)" fill="none" stroke-linejoin="miter" d="M 254.791478 244.680434 C 256.446918 244.446173 257.264226 243.493515 257.243403 241.817252 C 257.238197 240.994738 257.191345 240.31278 257.113258 239.766172 C 256.858175 238.037852 255.889899 237.413158 254.198018 237.897296 C 244.843221 240.593892 238.528603 244.248353 237.4458 255.17009 C 236.670138 263.015208 236.65452 270.547979 237.398948 277.768403 C 237.4458 278.221307 237.700883 278.450361 238.164198 278.450361 L 241.214789 278.450361 C 241.558371 278.450361 241.766602 278.288982 241.849895 277.961017 C 243.380396 271.891072 243.219016 267.388068 243.333544 261.750203 C 243.422042 257.377343 243.77083 254.331959 244.385112 252.608844 C 246.009317 248.048576 249.481576 245.409243 254.791478 244.680434 " stroke="#07346a" stroke-width="2" stroke-opacity="1" stroke-miterlimit="4"/><path stroke-linecap="butt" transform="matrix(0.750367, 0, 0, 0.750367, -7.765251, -119.45953)" fill="none" stroke-linejoin="miter" d="M 310.332006 240.094137 C 310.004041 251.432337 309.863485 265.180815 309.905131 281.339572 C 309.910337 284.468249 309.342906 287.59172 307.900904 290.647516 C 306.667133 293.239997 305.81859 295.379574 305.355275 297.061043 C 305.313628 297.21201 305.308423 297.362978 305.344863 297.513946 C 305.376098 297.67012 305.443773 297.80547 305.547889 297.919997 C 305.646799 298.03973 305.771737 298.128229 305.917499 298.180287 C 306.063261 298.23755 306.214229 298.258373 306.370403 298.23755 C 310.727645 297.664914 313.554387 295.426426 314.845422 291.516882 C 316.349894 286.99826 316.131251 280.246357 316.245778 275.946379 C 316.516479 265.894008 316.568537 256.15919 316.39154 246.731513 C 316.349894 244.555495 315.917814 241.780811 315.714788 240.083725 C 315.553409 238.803102 314.824599 238.162791 313.528358 238.162791 L 312.31541 238.162791 C 311.024375 238.162791 310.36324 238.808308 310.332006 240.094137 " stroke="#07346a" stroke-width="2" stroke-opacity="1" stroke-miterlimit="4"/><path stroke-linecap="butt" transform="matrix(0.750367, 0, 0, 0.750367, -7.765251, -119.45953)" fill="none" stroke-linejoin="miter" d="M 122.731106 256.815118 C 116.614308 272.057657 113.38672 280.730495 110.289278 287.633366 C 109.347031 289.736503 108.628632 291.480441 108.134083 292.854768 C 105.145962 301.230877 102.095371 309.159287 98.982311 316.645206 C 98.925048 316.780557 98.904225 316.921113 98.919842 317.066875 C 98.935459 317.212637 98.982311 317.347987 99.065604 317.472926 C 99.148897 317.592659 99.253012 317.691569 99.383157 317.759244 C 99.513302 317.826919 99.653858 317.86336 99.79962 317.858154 C 115.10463 317.790479 128.530351 312.746073 140.087195 302.719731 C 144.267441 299.096505 147.50544 295.447249 149.801192 291.761554 C 157.349581 279.658103 161.264332 265.670159 158.937346 251.401102 C 158.880082 251.067932 158.729114 250.792025 158.479236 250.568176 C 158.224153 250.349533 157.932629 250.2298 157.599459 250.214183 C 152.591493 250.031981 146.318521 249.979923 138.780543 250.052804 C 131.242565 250.125685 125.417291 250.136096 122.731106 256.815118 " stroke="#07346a" stroke-width="2" stroke-opacity="1" stroke-miterlimit="4"/><path fill="#ff6216" d="M 72.28125 54.726562 C 71.539062 55.613281 70.324219 56.128906 68.640625 56.277344 C 65.886719 55.175781 62.710938 54.628906 59.113281 54.636719 C 46.328125 54.667969 35.308594 54.65625 26.050781 54.605469 C 25.988281 54.601562 25.929688 54.585938 25.875 54.554688 C 25.820312 54.523438 25.777344 54.480469 25.742188 54.425781 C 25.710938 54.371094 25.691406 54.3125 25.6875 54.25 C 25.683594 54.1875 25.695312 54.125 25.722656 54.070312 C 30.625 44.277344 37.648438 37.027344 46.800781 32.324219 C 64.828125 23.046875 86.746094 26.828125 100.957031 41.167969 C 104.722656 44.964844 107.8125 49.261719 110.230469 54.054688 C 110.410156 54.414062 110.296875 54.597656 109.898438 54.597656 Z M 72.28125 54.726562 " fill-opacity="1" fill-rule="nonzero"/><path fill="#fb2f07" d="M 230.976562 48.082031 C 231.785156 49.589844 232.074219 50.929688 231.84375 52.097656 C 231.730469 52.664062 231.386719 52.976562 230.808594 53.035156 C 227.953125 53.304688 225.417969 53.351562 223.203125 53.179688 C 222.953125 53.164062 222.828125 53.027344 222.828125 52.773438 L 222.828125 46.371094 C 222.828125 46.28125 222.859375 46.207031 222.917969 46.140625 C 222.980469 46.074219 223.054688 46.035156 223.144531 46.027344 C 225.058594 45.796875 226.9375 45.925781 228.777344 46.410156 C 229.789062 46.675781 230.523438 47.234375 230.976562 48.082031 Z M 230.976562 48.082031 " fill-opacity="1" fill-rule="nonzero"/><path fill="#03285c" d="M 141.984375 54.535156 C 141.984375 54.296875 141.902344 54.09375 141.730469 53.921875 C 141.5625 53.753906 141.359375 53.667969 141.121094 53.667969 L 128.871094 53.667969 C 128.605469 53.667969 128.464844 53.535156 128.449219 53.269531 C 128.363281 51.640625 128.449219 50.355469 128.710938 49.414062 C 129.507812 46.503906 131.402344 46.527344 133.84375 46.351562 C 137.894531 46.0625 147.929688 45.984375 163.953125 46.113281 C 164.117188 46.117188 164.199219 46.203125 164.199219 46.363281 L 164.199219 53.476562 C 164.199219 53.546875 164.175781 53.605469 164.125 53.652344 C 164.074219 53.699219 164.015625 53.722656 163.945312 53.722656 L 151.527344 53.722656 C 151.3125 53.722656 151.128906 53.800781 150.976562 53.953125 C 150.824219 54.105469 150.746094 54.289062 150.746094 54.503906 L 150.746094 91.136719 C 150.746094 91.222656 150.71875 91.292969 150.65625 91.351562 C 150.597656 91.414062 150.523438 91.441406 150.441406 91.441406 L 142.667969 91.441406 C 142.480469 91.441406 142.320312 91.375 142.1875 91.242188 C 142.050781 91.105469 141.984375 90.945312 141.984375 90.753906 Z M 143.71875 54.851562 C 143.855469 70.027344 143.6875 79.785156 144.453125 89.074219 C 144.5 89.652344 144.808594 89.894531 145.382812 89.800781 L 147.925781 89.394531 C 148.316406 89.335938 148.519531 89.109375 148.539062 88.714844 C 148.875 81.789062 148.992188 74.46875 148.882812 66.746094 C 148.832031 62.652344 149.28125 57.847656 150.066406 53.59375 C 150.109375 53.359375 150.25 53.21875 150.488281 53.179688 L 161.675781 51.386719 C 161.953125 51.34375 162.007812 51.210938 161.839844 50.980469 C 160.8125 49.558594 159.175781 48.757812 156.933594 48.582031 C 148.960938 47.929688 139.960938 48.433594 133.230469 48.511719 C 132.035156 48.523438 131.300781 49.152344 131.023438 50.40625 C 130.996094 50.542969 130.976562 50.753906 130.972656 51.039062 C 130.929688 52.210938 131.488281 52.703125 132.640625 52.511719 C 136.355469 51.910156 139.925781 52.488281 143.351562 54.253906 C 143.59375 54.378906 143.71875 54.578125 143.71875 54.851562 Z M 143.71875 54.851562 " fill-opacity="1" fill-rule="nonzero"/><path fill="#0b4077" d="M 280.363281 55.832031 C 280.367188 56 280.433594 56.144531 280.554688 56.261719 C 280.675781 56.378906 280.820312 56.4375 280.992188 56.4375 L 284.890625 56.4375 C 285.167969 56.4375 285.324219 56.574219 285.359375 56.851562 C 285.828125 60.480469 284.328125 62.414062 280.859375 62.660156 C 280.675781 62.675781 280.519531 62.746094 280.394531 62.878906 C 280.265625 63.011719 280.203125 63.167969 280.199219 63.351562 C 280.132812 70 280.148438 76.195312 280.238281 81.945312 C 280.253906 82.785156 280.363281 83.496094 280.570312 84.085938 C 280.65625 84.328125 280.824219 84.492188 281.074219 84.574219 C 282.132812 84.898438 283.488281 84.9375 285.144531 84.699219 C 285.269531 84.675781 285.328125 84.730469 285.328125 84.859375 L 285.328125 91.34375 C 285.328125 91.492188 285.253906 91.566406 285.105469 91.566406 C 280.054688 91.597656 276.972656 91.511719 275.871094 91.3125 C 272.808594 90.753906 271.28125 88.902344 271.285156 85.753906 C 271.324219 70.539062 271.308594 57.503906 271.25 46.648438 C 271.25 46.367188 271.390625 46.222656 271.671875 46.210938 C 272.445312 46.179688 273.808594 46.171875 275.753906 46.1875 C 279.386719 46.21875 279.996094 48.402344 280.179688 51.609375 C 280.203125 52.039062 280.265625 53.445312 280.363281 55.832031 Z M 280.363281 55.832031 " fill-opacity="1" fill-rule="nonzero"/><path fill="#0b4077" d="M 143.351562 54.253906 C 139.925781 52.488281 136.355469 51.910156 132.640625 52.511719 C 131.488281 52.703125 130.929688 52.210938 130.972656 51.039062 C 130.976562 50.753906 130.996094 50.542969 131.023438 50.40625 C 131.300781 49.152344 132.035156 48.523438 133.230469 48.511719 C 139.960938 48.433594 148.960938 47.929688 156.933594 48.582031 C 159.175781 48.757812 160.8125 49.558594 161.839844 50.980469 C 162.007812 51.210938 161.953125 51.34375 161.675781 51.386719 L 150.488281 53.179688 C 150.25 53.21875 150.109375 53.359375 150.066406 53.59375 C 149.28125 57.847656 148.832031 62.652344 148.882812 66.746094 C 148.992188 74.46875 148.875 81.789062 148.539062 88.714844 C 148.519531 89.109375 148.316406 89.335938 147.925781 89.394531 L 145.382812 89.800781 C 144.808594 89.894531 144.5 89.652344 144.453125 89.074219 C 143.6875 79.785156 143.855469 70.027344 143.71875 54.851562 C 143.71875 54.578125 143.59375 54.378906 143.351562 54.253906 Z M 143.351562 54.253906 " fill-opacity="1" fill-rule="nonzero"/><path fill="#fb2f07" d="M 72.28125 54.726562 C 73.328125 56.195312 74.21875 57.425781 74.957031 58.421875 C 77.121094 61.355469 77.925781 64.660156 77.363281 68.339844 C 77.121094 69.867188 75.921875 73.347656 73.765625 78.78125 C 69.429688 89.679688 64.644531 101.753906 59.417969 115.003906 C 59.066406 115.894531 58.523438 117.085938 57.792969 118.578125 C 57.425781 119.324219 56.742188 119.640625 55.746094 119.527344 L 55.394531 119.488281 C 54.566406 119.398438 54.3125 118.917969 54.628906 118.054688 C 54.980469 117.105469 55.441406 115.9375 56.015625 114.554688 C 56.445312 113.519531 61.320312 101.382812 70.640625 78.136719 C 71.683594 75.539062 72.605469 72.902344 73.40625 70.21875 C 75.160156 64.34375 73.570312 59.695312 68.640625 56.277344 C 70.324219 56.128906 71.539062 55.613281 72.28125 54.726562 Z M 72.28125 54.726562 " fill-opacity="1" fill-rule="nonzero"/><path fill="#03285c" d="M 210.488281 66.0625 C 210.410156 64.699219 209.847656 63.816406 208.800781 63.417969 C 204.773438 61.90625 201.4375 62.4375 198.792969 65.007812 C 198.59375 65.199219 198.347656 65.296875 198.0625 65.296875 L 190.949219 65.296875 C 190.597656 65.296875 190.433594 65.121094 190.460938 64.769531 C 190.796875 60.53125 194.957031 57.195312 198.804688 56.238281 C 203.160156 55.140625 209.707031 55.449219 213.800781 57.363281 C 216.03125 58.40625 217.609375 60.234375 218.535156 62.851562 C 218.847656 63.738281 219.015625 66.003906 219.035156 69.652344 C 219.066406 75.339844 218.910156 79.242188 218.566406 81.355469 C 217.890625 85.585938 215.644531 88.585938 211.820312 90.355469 C 210.289062 91.066406 208.6875 91.566406 207.015625 91.855469 C 201.84375 92.769531 196.660156 92.53125 192.519531 89.195312 C 190.9375 87.914062 189.980469 86.117188 189.648438 83.808594 C 189.011719 79.371094 189.515625 75.179688 193.648438 72.546875 C 194.710938 71.875 196.527344 71.21875 199.097656 70.585938 C 200.226562 70.304688 202.828125 69.757812 206.902344 68.945312 C 208.417969 68.648438 210.585938 67.917969 210.488281 66.0625 Z M 210.65625 68.507812 C 208.617188 69.832031 207.167969 70.628906 206.304688 70.894531 C 201.074219 72.488281 198.273438 73.359375 197.894531 73.507812 C 195.976562 74.234375 194.425781 75.28125 193.234375 76.648438 C 192.125 77.925781 191.628906 79.585938 191.746094 81.632812 C 191.988281 85.699219 194.183594 88.375 198.339844 89.65625 C 204.394531 91.535156 211.875 89.910156 215.210938 84.152344 C 216.097656 82.621094 216.550781 80.660156 216.566406 78.265625 C 216.585938 73.347656 216.484375 69.425781 216.257812 66.5 C 215.832031 60.8125 212.160156 59.226562 207.023438 57.976562 C 206.195312 57.777344 205.296875 57.777344 204.324219 57.976562 C 204.132812 58.011719 203.226562 58.15625 201.613281 58.40625 C 198.828125 58.839844 196.308594 59.914062 194.054688 61.625 C 193.875 61.765625 193.785156 61.945312 193.785156 62.171875 L 193.785156 62.5 C 193.785156 62.828125 193.949219 62.976562 194.277344 62.953125 C 196.566406 62.769531 197.792969 62.652344 197.957031 62.605469 C 202.761719 61.367188 207.972656 60.960938 211.539062 64.132812 C 212.09375 64.628906 212.289062 65.476562 212.121094 66.675781 C 212.035156 67.320312 211.546875 67.933594 210.65625 68.507812 Z M 210.65625 68.507812 " fill-opacity="1" fill-rule="nonzero"/><path fill="#03285c" d="M 245.792969 76.074219 C 243.898438 75.917969 243.339844 76.863281 244.121094 78.917969 C 244.664062 80.339844 245.007812 81.1875 245.148438 81.464844 C 246.179688 83.421875 247.710938 84.519531 249.734375 84.757812 C 252.886719 85.136719 255.566406 84.054688 257.773438 81.507812 C 258.035156 81.207031 258.566406 81.042969 259.367188 81.019531 C 261.707031 80.941406 264.003906 80.902344 266.25 80.902344 C 266.316406 80.902344 266.371094 80.929688 266.40625 80.984375 C 266.445312 81.035156 266.457031 81.09375 266.433594 81.15625 C 264.726562 86.445312 261.242188 89.914062 255.972656 91.558594 C 247.730469 94.125 238.640625 90.394531 235.921875 81.832031 C 233.871094 75.390625 234.210938 69.242188 236.941406 63.382812 C 241.707031 53.148438 259.175781 52.972656 264.425781 62.90625 C 266.359375 66.566406 267.195312 70.863281 266.933594 75.804688 C 266.921875 76.046875 266.800781 76.167969 266.566406 76.167969 C 253.988281 76.210938 247.066406 76.183594 245.792969 76.074219 Z M 243.417969 76.28125 C 246.5 75.246094 249.328125 74.503906 252.597656 74.394531 C 255.761719 74.289062 259.507812 74.222656 263.835938 74.195312 C 264 74.195312 264.136719 74.140625 264.253906 74.023438 C 264.367188 73.910156 264.425781 73.769531 264.425781 73.605469 C 264.449219 64.371094 260.027344 57.648438 249.703125 58.453125 C 242.394531 59.019531 238.261719 62.8125 237.308594 69.835938 C 236.457031 76.042969 237.546875 84.4375 243.523438 87.886719 C 249.734375 91.46875 255.566406 90.894531 261.03125 86.160156 C 261.160156 86.054688 261.726562 85.304688 262.742188 83.910156 C 262.898438 83.6875 262.902344 83.464844 262.753906 83.234375 C 262.683594 83.125 262.59375 83.039062 262.480469 82.972656 C 262.253906 82.835938 262.023438 82.816406 261.78125 82.910156 C 257.402344 84.609375 255.097656 85.496094 254.867188 85.578125 C 251.179688 86.835938 246.613281 86.09375 244.105469 82.78125 C 243.128906 81.492188 242.523438 79.921875 242.289062 78.066406 C 242.242188 77.671875 242.320312 77.308594 242.535156 76.972656 C 242.746094 76.636719 243.039062 76.40625 243.417969 76.28125 Z M 243.417969 76.28125 " fill-opacity="1" fill-rule="nonzero"/><path fill="#0b4077" d="M 303.394531 55.554688 C 304.746094 55.554688 306 55.679688 307.167969 55.929688 C 313.179688 57.230469 316.980469 60.90625 318.5625 66.96875 C 319.234375 69.511719 319.566406 71.824219 319.5625 73.898438 C 319.5625 75.96875 319.222656 78.273438 318.550781 80.820312 C 316.953125 86.875 313.148438 90.546875 307.128906 91.832031 C 305.964844 92.085938 304.707031 92.207031 303.363281 92.203125 C 302.015625 92.203125 300.757812 92.078125 299.59375 91.828125 C 293.578125 90.527344 289.78125 86.847656 288.195312 80.789062 C 287.527344 78.242188 287.195312 75.933594 287.199219 73.859375 C 287.199219 71.789062 287.535156 69.484375 288.210938 66.9375 C 289.804688 60.882812 293.613281 57.210938 299.632812 55.921875 C 300.796875 55.679688 302.050781 55.554688 303.394531 55.554688 Z M 303.113281 86.226562 C 303.730469 86.242188 304.347656 86.175781 304.957031 86.03125 C 305.5625 85.882812 306.15625 85.664062 306.734375 85.367188 C 307.3125 85.066406 307.863281 84.699219 308.386719 84.261719 C 308.910156 83.820312 309.394531 83.320312 309.84375 82.757812 C 310.292969 82.195312 310.695312 81.582031 311.054688 80.914062 C 311.410156 80.25 311.714844 79.546875 311.96875 78.804688 C 312.21875 78.0625 312.414062 77.292969 312.550781 76.503906 C 312.6875 75.710938 312.765625 74.910156 312.78125 74.101562 C 312.800781 73.292969 312.757812 72.492188 312.652344 71.695312 C 312.546875 70.898438 312.386719 70.125 312.164062 69.371094 C 311.945312 68.621094 311.667969 67.902344 311.339844 67.222656 C 311.011719 66.542969 310.632812 65.914062 310.210938 65.332031 C 309.785156 64.75 309.320312 64.230469 308.816406 63.769531 C 308.3125 63.308594 307.777344 62.917969 307.210938 62.597656 C 306.648438 62.273438 306.0625 62.027344 305.460938 61.859375 C 304.859375 61.6875 304.25 61.597656 303.628906 61.582031 C 303.011719 61.570312 302.398438 61.636719 301.789062 61.78125 C 301.179688 61.925781 300.585938 62.148438 300.007812 62.445312 C 299.433594 62.742188 298.882812 63.109375 298.359375 63.550781 C 297.835938 63.988281 297.347656 64.488281 296.902344 65.050781 C 296.453125 65.617188 296.046875 66.230469 295.691406 66.894531 C 295.332031 67.5625 295.027344 68.265625 294.777344 69.007812 C 294.523438 69.75 294.332031 70.515625 294.191406 71.308594 C 294.054688 72.097656 293.980469 72.898438 293.960938 73.707031 C 293.945312 74.515625 293.988281 75.320312 294.09375 76.117188 C 294.195312 76.914062 294.359375 77.6875 294.578125 78.4375 C 294.800781 79.191406 295.074219 79.90625 295.40625 80.585938 C 295.734375 81.265625 296.109375 81.898438 296.535156 82.480469 C 296.960938 83.0625 297.425781 83.582031 297.929688 84.042969 C 298.433594 84.503906 298.96875 84.894531 299.53125 85.214844 C 300.097656 85.535156 300.679688 85.78125 301.285156 85.953125 C 301.886719 86.125 302.496094 86.214844 303.113281 86.226562 Z M 303.113281 86.226562 " fill-opacity="1" fill-rule="nonzero"/><path fill="#03285c" d="M 343.46875 65.605469 C 340.898438 61.6875 334.59375 61.78125 332.390625 65.980469 C 331.867188 66.976562 331.585938 68.863281 331.554688 71.636719 C 331.476562 79.496094 331.527344 86.03125 331.710938 91.242188 C 331.71875 91.464844 331.617188 91.574219 331.394531 91.574219 L 323.046875 91.574219 C 322.78125 91.574219 322.648438 91.4375 322.648438 91.167969 C 322.679688 82.230469 322.707031 75.5625 322.734375 71.160156 C 322.742188 69.230469 323.003906 66.800781 323.324219 65.257812 C 323.933594 62.382812 325.492188 60.171875 328.007812 58.628906 C 334.15625 54.851562 341.773438 54.652344 347.976562 58.484375 C 352.222656 61.105469 353.1875 66.386719 353.285156 71.222656 C 353.359375 74.574219 353.371094 81.273438 353.324219 91.320312 C 353.324219 91.566406 353.203125 91.691406 352.957031 91.703125 C 351.121094 91.761719 349.339844 91.605469 347.605469 91.242188 C 345.3125 90.761719 344.203125 89.328125 344.273438 86.945312 C 344.335938 84.921875 344.359375 79.578125 344.347656 70.917969 C 344.347656 68.265625 344.054688 66.492188 343.46875 65.605469 Z M 341.527344 61.585938 C 344.59375 63.839844 346.125 67.078125 346.121094 71.300781 C 346.121094 72.101562 346.210938 77.550781 346.386719 87.640625 C 346.390625 87.835938 346.449219 88.007812 346.5625 88.164062 C 346.675781 88.316406 346.820312 88.425781 347 88.484375 L 349.992188 89.503906 C 350.394531 89.636719 350.617188 89.492188 350.65625 89.066406 C 351.414062 81.277344 351.382812 74.253906 350.566406 67.996094 C 349.644531 60.960938 343.238281 57.753906 336.617188 58.605469 C 335.296875 58.769531 333.636719 59.191406 331.632812 59.871094 C 325.984375 61.773438 324.925781 66.261719 324.84375 71.636719 C 324.785156 75.183594 324.777344 81.054688 324.820312 89.25 C 324.820312 89.394531 324.871094 89.511719 324.96875 89.613281 C 325.070312 89.714844 325.191406 89.765625 325.332031 89.765625 L 327.753906 89.765625 C 328.066406 89.765625 328.339844 89.664062 328.574219 89.457031 C 328.808594 89.25 328.945312 88.992188 328.988281 88.683594 C 329.792969 82.734375 329.6875 75.507812 329.855469 70.816406 C 330.101562 63.972656 334.429688 61.152344 340.839844 61.351562 C 341.09375 61.355469 341.324219 61.433594 341.527344 61.585938 Z M 341.527344 61.585938 " fill-opacity="1" fill-rule="nonzero"/><path fill="#03285c" d="M 180.511719 66.324219 C 178.210938 67.453125 177.046875 69.402344 177.023438 72.171875 C 176.921875 82.8125 176.890625 89.136719 176.929688 91.144531 C 176.9375 91.398438 176.8125 91.527344 176.5625 91.527344 L 168.382812 91.527344 C 168.125 91.527344 167.992188 91.398438 167.984375 91.136719 C 167.792969 80.875 167.828125 74.308594 168.101562 71.4375 C 168.746094 64.554688 172.128906 59.996094 178.257812 57.761719 C 180.554688 56.925781 183.511719 56.433594 187.125 56.292969 C 187.226562 56.285156 187.3125 56.320312 187.382812 56.390625 C 187.457031 56.457031 187.492188 56.542969 187.492188 56.644531 L 187.492188 65.136719 C 187.492188 65.429688 187.347656 65.582031 187.054688 65.597656 C 183.25 65.804688 181.066406 66.046875 180.511719 66.324219 Z M 183.421875 64.140625 C 184.664062 63.964844 185.277344 63.25 185.261719 61.992188 C 185.257812 61.375 185.222656 60.863281 185.164062 60.453125 C 184.972656 59.15625 184.246094 58.6875 182.976562 59.050781 C 175.957031 61.074219 171.21875 63.816406 170.40625 72.011719 C 169.824219 77.898438 169.8125 83.550781 170.371094 88.96875 C 170.40625 89.308594 170.597656 89.480469 170.945312 89.480469 L 173.234375 89.480469 C 173.492188 89.480469 173.648438 89.359375 173.710938 89.113281 C 174.859375 84.558594 174.738281 81.179688 174.824219 76.949219 C 174.890625 73.667969 175.152344 71.382812 175.613281 70.089844 C 176.832031 66.667969 179.4375 64.6875 183.421875 64.140625 Z M 183.421875 64.140625 " fill-opacity="1" fill-rule="nonzero"/><path fill="#03285c" d="M 222.351562 98.324219 C 222.496094 98.277344 222.609375 98.191406 222.699219 98.070312 C 222.785156 97.949219 222.828125 97.8125 222.828125 97.660156 L 222.828125 56.652344 C 222.828125 56.417969 222.945312 56.304688 223.171875 56.3125 C 224.238281 56.371094 225.320312 56.417969 226.429688 56.453125 C 227.945312 56.5 229 56.675781 229.597656 56.980469 C 230.957031 57.675781 231.636719 58.972656 231.644531 60.875 C 231.664062 72.851562 231.667969 84.792969 231.660156 96.699219 C 231.660156 98.648438 231.703125 101.03125 230.65625 102.617188 C 228.339844 106.121094 224.429688 106.042969 219.894531 106.480469 C 219.304688 106.53125 219.011719 106.265625 219.011719 105.683594 L 219.011719 99.628906 C 219.011719 99.03125 219.308594 98.75 219.902344 98.785156 C 220.535156 98.820312 221.351562 98.667969 222.351562 98.324219 Z M 225.097656 60.699219 C 224.851562 69.207031 224.746094 79.523438 224.777344 91.648438 C 224.78125 93.996094 224.355469 96.339844 223.273438 98.632812 C 222.347656 100.578125 221.710938 102.183594 221.363281 103.445312 C 221.332031 103.558594 221.328125 103.671875 221.355469 103.785156 C 221.378906 103.902344 221.429688 104.003906 221.507812 104.089844 C 221.582031 104.179688 221.675781 104.246094 221.785156 104.285156 C 221.894531 104.328125 222.007812 104.34375 222.125 104.328125 C 225.394531 103.898438 227.515625 102.21875 228.484375 99.285156 C 229.613281 95.894531 229.449219 90.828125 229.535156 87.601562 C 229.738281 80.058594 229.777344 72.753906 229.644531 65.679688 C 229.613281 64.046875 229.289062 61.964844 229.136719 60.691406 C 229.015625 59.730469 228.46875 59.25 227.496094 59.25 L 226.585938 59.25 C 225.617188 59.25 225.121094 59.734375 225.097656 60.699219 Z M 225.097656 60.699219 " fill-opacity="1" fill-rule="nonzero"/><path fill="#0b4077" d="M 212.121094 66.675781 C 212.289062 65.476562 212.09375 64.628906 211.539062 64.132812 C 207.972656 60.960938 202.761719 61.367188 197.957031 62.605469 C 197.792969 62.652344 196.566406 62.769531 194.277344 62.953125 C 193.949219 62.976562 193.785156 62.828125 193.785156 62.5 L 193.785156 62.171875 C 193.785156 61.945312 193.875 61.765625 194.054688 61.625 C 196.308594 59.914062 198.828125 58.839844 201.613281 58.40625 C 203.226562 58.15625 204.132812 58.011719 204.324219 57.976562 C 205.296875 57.777344 206.195312 57.777344 207.023438 57.976562 C 212.160156 59.226562 215.832031 60.8125 216.257812 66.5 C 216.484375 69.425781 216.585938 73.347656 216.566406 78.265625 C 216.550781 80.660156 216.097656 82.621094 215.210938 84.152344 C 211.875 89.910156 204.394531 91.535156 198.339844 89.65625 C 194.183594 88.375 191.988281 85.699219 191.746094 81.632812 C 191.628906 79.585938 192.125 77.925781 193.234375 76.648438 C 194.425781 75.28125 195.976562 74.234375 197.894531 73.507812 C 198.273438 73.359375 201.074219 72.488281 206.304688 70.894531 C 207.167969 70.628906 208.617188 69.832031 210.65625 68.507812 C 211.546875 67.933594 212.035156 67.320312 212.121094 66.675781 Z M 210.035156 74.128906 C 205.339844 75.3125 202.441406 76.082031 201.335938 76.433594 C 197.59375 77.636719 196.085938 81.265625 199.152344 84.308594 C 199.855469 85.011719 200.597656 85.402344 201.375 85.480469 C 205.367188 85.863281 209.851562 83.617188 210.34375 79.269531 C 210.515625 77.738281 210.664062 76.234375 210.785156 74.765625 C 210.832031 74.203125 210.582031 73.988281 210.035156 74.128906 Z M 210.035156 74.128906 " fill-opacity="1" fill-rule="nonzero"/><path fill="#0b4077" d="M 243.417969 76.28125 C 243.039062 76.40625 242.746094 76.636719 242.535156 76.972656 C 242.320312 77.308594 242.242188 77.671875 242.289062 78.066406 C 242.523438 79.921875 243.128906 81.492188 244.105469 82.78125 C 246.613281 86.09375 251.179688 86.835938 254.867188 85.578125 C 255.097656 85.496094 257.402344 84.609375 261.78125 82.910156 C 262.023438 82.816406 262.253906 82.835938 262.480469 82.972656 C 262.59375 83.039062 262.683594 83.125 262.753906 83.234375 C 262.902344 83.464844 262.898438 83.6875 262.742188 83.910156 C 261.726562 85.304688 261.160156 86.054688 261.03125 86.160156 C 255.566406 90.894531 249.734375 91.46875 243.523438 87.886719 C 237.546875 84.4375 236.457031 76.042969 237.308594 69.835938 C 238.261719 62.8125 242.394531 59.019531 249.703125 58.453125 C 260.027344 57.648438 264.449219 64.371094 264.425781 73.605469 C 264.425781 73.769531 264.367188 73.910156 264.253906 74.023438 C 264.136719 74.140625 264 74.195312 263.835938 74.195312 C 259.507812 74.222656 255.761719 74.289062 252.597656 74.394531 C 249.328125 74.503906 246.5 75.246094 243.417969 76.28125 Z M 244.222656 70.417969 L 257.421875 70.28125 C 257.507812 70.28125 257.585938 70.25 257.648438 70.1875 C 257.710938 70.121094 257.742188 70.046875 257.742188 69.957031 L 257.734375 69.851562 C 257.730469 69.398438 257.683594 68.953125 257.589844 68.507812 C 257.496094 68.066406 257.363281 67.636719 257.1875 67.222656 C 257.011719 66.804688 256.792969 66.410156 256.539062 66.039062 C 256.285156 65.664062 256 65.320312 255.675781 65.003906 C 255.355469 64.6875 255.003906 64.40625 254.628906 64.15625 C 254.25 63.910156 253.855469 63.703125 253.4375 63.535156 C 253.019531 63.363281 252.589844 63.238281 252.144531 63.15625 C 251.703125 63.070312 251.257812 63.03125 250.804688 63.035156 L 250.683594 63.035156 C 250.234375 63.039062 249.785156 63.089844 249.347656 63.183594 C 248.90625 63.273438 248.476562 63.410156 248.0625 63.585938 C 247.648438 63.765625 247.253906 63.980469 246.882812 64.234375 C 246.511719 64.488281 246.167969 64.777344 245.851562 65.101562 C 245.535156 65.425781 245.257812 65.773438 245.007812 66.152344 C 244.761719 66.53125 244.554688 66.929688 244.386719 67.347656 C 244.21875 67.769531 244.09375 68.199219 244.011719 68.644531 C 243.925781 69.089844 243.886719 69.535156 243.890625 69.988281 L 243.898438 70.097656 C 243.898438 70.183594 243.929688 70.261719 243.992188 70.324219 C 244.058594 70.386719 244.132812 70.417969 244.222656 70.417969 Z M 244.222656 70.417969 " fill-opacity="1" fill-rule="nonzero"/><path fill="#0b4077" d="M 340.839844 61.351562 C 334.429688 61.152344 330.101562 63.972656 329.855469 70.816406 C 329.6875 75.507812 329.792969 82.734375 328.988281 88.683594 C 328.945312 88.992188 328.808594 89.25 328.574219 89.457031 C 328.339844 89.664062 328.066406 89.765625 327.753906 89.765625 L 325.332031 89.765625 C 325.191406 89.765625 325.070312 89.714844 324.96875 89.613281 C 324.871094 89.511719 324.820312 89.394531 324.820312 89.25 C 324.777344 81.054688 324.785156 75.183594 324.84375 71.636719 C 324.925781 66.261719 325.984375 61.773438 331.632812 59.871094 C 333.636719 59.191406 335.296875 58.769531 336.617188 58.605469 C 343.238281 57.753906 349.644531 60.960938 350.566406 67.996094 C 351.382812 74.253906 351.414062 81.277344 350.65625 89.066406 C 350.617188 89.492188 350.394531 89.636719 349.992188 89.503906 L 347 88.484375 C 346.820312 88.425781 346.675781 88.316406 346.5625 88.164062 C 346.449219 88.007812 346.390625 87.835938 346.386719 87.640625 C 346.210938 77.550781 346.121094 72.101562 346.121094 71.300781 C 346.125 67.078125 344.59375 63.839844 341.527344 61.585938 C 341.324219 61.433594 341.09375 61.355469 340.839844 61.351562 Z M 340.839844 61.351562 " fill-opacity="1" fill-rule="nonzero"/><path fill="#0b4077" d="M 183.421875 64.140625 C 179.4375 64.6875 176.832031 66.667969 175.613281 70.089844 C 175.152344 71.382812 174.890625 73.667969 174.824219 76.949219 C 174.738281 81.179688 174.859375 84.558594 173.710938 89.113281 C 173.648438 89.359375 173.492188 89.480469 173.234375 89.480469 L 170.945312 89.480469 C 170.597656 89.480469 170.40625 89.308594 170.371094 88.96875 C 169.8125 83.550781 169.824219 77.898438 170.40625 72.011719 C 171.21875 63.816406 175.957031 61.074219 182.976562 59.050781 C 184.246094 58.6875 184.972656 59.15625 185.164062 60.453125 C 185.222656 60.863281 185.257812 61.375 185.261719 61.992188 C 185.277344 63.25 184.664062 63.964844 183.421875 64.140625 Z M 183.421875 64.140625 " fill-opacity="1" fill-rule="nonzero"/><path fill="#0b4077" d="M 225.097656 60.699219 C 225.121094 59.734375 225.617188 59.25 226.585938 59.25 L 227.496094 59.25 C 228.46875 59.25 229.015625 59.730469 229.136719 60.691406 C 229.289062 61.964844 229.613281 64.046875 229.644531 65.679688 C 229.777344 72.753906 229.738281 80.058594 229.535156 87.601562 C 229.449219 90.828125 229.613281 95.894531 228.484375 99.285156 C 227.515625 102.21875 225.394531 103.898438 222.125 104.328125 C 222.007812 104.34375 221.894531 104.328125 221.785156 104.285156 C 221.675781 104.246094 221.582031 104.179688 221.507812 104.089844 C 221.429688 104.003906 221.378906 103.902344 221.355469 103.785156 C 221.328125 103.671875 221.332031 103.558594 221.363281 103.445312 C 221.710938 102.183594 222.347656 100.578125 223.273438 98.632812 C 224.355469 96.339844 224.78125 93.996094 224.777344 91.648438 C 224.746094 79.523438 224.851562 69.207031 225.097656 60.699219 Z M 225.097656 60.699219 " fill-opacity="1" fill-rule="nonzero"/><path fill="#03285c" d="M 303.113281 86.226562 C 302.496094 86.214844 301.886719 86.125 301.285156 85.953125 C 300.679688 85.78125 300.097656 85.535156 299.53125 85.214844 C 298.96875 84.894531 298.433594 84.503906 297.929688 84.042969 C 297.425781 83.582031 296.960938 83.0625 296.535156 82.480469 C 296.109375 81.898438 295.734375 81.265625 295.40625 80.585938 C 295.074219 79.90625 294.800781 79.191406 294.578125 78.4375 C 294.359375 77.6875 294.195312 76.914062 294.09375 76.117188 C 293.988281 75.320312 293.945312 74.515625 293.960938 73.707031 C 293.980469 72.898438 294.054688 72.097656 294.191406 71.308594 C 294.332031 70.515625 294.523438 69.75 294.777344 69.007812 C 295.027344 68.265625 295.332031 67.5625 295.691406 66.894531 C 296.046875 66.230469 296.453125 65.617188 296.902344 65.050781 C 297.347656 64.488281 297.835938 63.988281 298.359375 63.550781 C 298.882812 63.109375 299.433594 62.742188 300.007812 62.445312 C 300.585938 62.148438 301.179688 61.925781 301.789062 61.78125 C 302.398438 61.636719 303.011719 61.570312 303.628906 61.582031 C 304.25 61.597656 304.859375 61.6875 305.460938 61.859375 C 306.0625 62.027344 306.648438 62.273438 307.210938 62.597656 C 307.777344 62.917969 308.3125 63.308594 308.816406 63.769531 C 309.320312 64.230469 309.785156 64.75 310.210938 65.332031 C 310.632812 65.914062 311.011719 66.542969 311.339844 67.222656 C 311.667969 67.902344 311.945312 68.621094 312.164062 69.371094 C 312.386719 70.125 312.546875 70.898438 312.652344 71.695312 C 312.757812 72.492188 312.800781 73.292969 312.78125 74.101562 C 312.765625 74.910156 312.6875 75.710938 312.550781 76.503906 C 312.414062 77.292969 312.21875 78.0625 311.96875 78.804688 C 311.714844 79.546875 311.410156 80.25 311.054688 80.914062 C 310.695312 81.582031 310.292969 82.195312 309.84375 82.757812 C 309.394531 83.320312 308.910156 83.820312 308.386719 84.261719 C 307.863281 84.699219 307.3125 85.066406 306.734375 85.367188 C 306.15625 85.664062 305.5625 85.882812 304.957031 86.03125 C 304.347656 86.175781 303.730469 86.242188 303.113281 86.226562 Z M 295.976562 74.003906 C 295.976562 78.613281 297.371094 84.941406 303.363281 84.941406 C 309.359375 84.941406 310.753906 78.613281 310.753906 73.996094 C 310.753906 69.390625 309.359375 63.058594 303.363281 63.058594 C 297.371094 63.058594 295.976562 69.390625 295.976562 74.003906 Z M 295.976562 74.003906 " fill-opacity="1" fill-rule="nonzero"/><path fill="#0b4077" d="M 40.027344 111.648438 C 35.71875 108.875 32.152344 105.148438 29.324219 100.472656 C 23.046875 90.078125 19.804688 78.496094 21.570312 66.378906 C 21.59375 66.199219 21.699219 66.109375 21.875 66.109375 C 34.441406 66.054688 44.882812 66.058594 53.203125 66.125 C 55.285156 66.148438 56.757812 68.769531 56.890625 70.464844 C 56.949219 71.316406 56.601562 72.675781 55.847656 74.542969 C 51.695312 84.832031 46.714844 97.105469 40.898438 111.363281 C 40.867188 111.445312 40.816406 111.519531 40.753906 111.578125 C 40.6875 111.640625 40.613281 111.683594 40.53125 111.710938 C 40.445312 111.738281 40.359375 111.746094 40.269531 111.734375 C 40.183594 111.722656 40.101562 111.695312 40.027344 111.648438 Z M 40.027344 111.648438 " fill-opacity="1" fill-rule="nonzero"/><path fill="#03285c" d="M 76.152344 87.933594 C 79.519531 79.382812 82.167969 72.894531 84.101562 68.464844 C 84.773438 66.921875 85.828125 66.140625 87.257812 66.125 C 96.625 66.011719 105.410156 66.003906 113.609375 66.09375 C 113.703125 66.09375 113.785156 66.125 113.859375 66.1875 C 113.929688 66.25 113.972656 66.328125 113.984375 66.425781 C 114.578125 71.210938 114.679688 75.589844 114.292969 79.554688 C 113.882812 83.730469 112.773438 87.914062 110.964844 92.109375 C 106.765625 101.84375 100.152344 109.316406 91.128906 114.523438 C 82.675781 119.402344 73.542969 121.410156 63.726562 120.546875 C 63.660156 120.542969 63.597656 120.519531 63.539062 120.484375 C 63.484375 120.449219 63.4375 120.402344 63.402344 120.34375 C 63.367188 120.289062 63.347656 120.226562 63.34375 120.160156 C 63.335938 120.089844 63.347656 120.027344 63.375 119.964844 C 66.292969 112.835938 70.550781 102.160156 76.152344 87.933594 Z M 84.328125 73.246094 C 79.738281 84.683594 77.316406 91.191406 74.992188 96.371094 C 74.285156 97.949219 73.746094 99.257812 73.375 100.289062 C 71.132812 106.574219 68.84375 112.523438 66.507812 118.140625 C 66.464844 118.242188 66.449219 118.347656 66.460938 118.457031 C 66.472656 118.566406 66.507812 118.667969 66.570312 118.761719 C 66.632812 118.851562 66.710938 118.925781 66.808594 118.976562 C 66.90625 119.027344 67.011719 119.054688 67.121094 119.050781 C 78.605469 119 88.679688 115.214844 97.351562 107.691406 C 100.488281 104.972656 102.917969 102.234375 104.640625 99.46875 C 110.304688 90.386719 113.242188 79.890625 111.496094 69.183594 C 111.453125 68.933594 111.339844 68.726562 111.152344 68.558594 C 110.960938 68.394531 110.742188 68.304688 110.492188 68.292969 C 106.734375 68.15625 102.027344 68.117188 96.371094 68.171875 C 90.714844 68.226562 86.34375 68.234375 84.328125 73.246094 Z M 84.328125 73.246094 " fill-opacity="1" fill-rule="nonzero"/><path fill="#0b4077" d="M 74.992188 96.371094 C 77.316406 91.191406 79.738281 84.683594 84.328125 73.246094 C 86.34375 68.234375 90.714844 68.226562 96.371094 68.171875 C 102.027344 68.117188 106.734375 68.15625 110.492188 68.292969 C 110.742188 68.304688 110.960938 68.394531 111.152344 68.558594 C 111.339844 68.726562 111.453125 68.933594 111.496094 69.183594 C 113.242188 79.890625 110.304688 90.386719 104.640625 99.46875 C 102.917969 102.234375 100.488281 104.972656 97.351562 107.691406 C 88.679688 115.214844 78.605469 119 67.121094 119.050781 C 67.011719 119.054688 66.90625 119.027344 66.808594 118.976562 C 66.710938 118.925781 66.632812 118.851562 66.570312 118.761719 C 66.507812 118.667969 66.472656 118.566406 66.460938 118.457031 C 66.449219 118.347656 66.464844 118.242188 66.507812 118.140625 C 68.84375 112.523438 71.132812 106.574219 73.375 100.289062 C 73.746094 99.257812 74.285156 97.949219 74.992188 96.371094 Z M 74.992188 96.371094 " fill-opacity="1" fill-rule="nonzero"/><path fill="#fb2f07" d="M 239.398438 102.808594 C 239.378906 104.214844 239.492188 106.148438 239.738281 108.613281 C 239.75 108.757812 239.710938 108.886719 239.609375 108.996094 C 239.511719 109.105469 239.390625 109.15625 239.246094 109.15625 L 238.925781 109.15625 C 238.671875 109.15625 238.457031 109.066406 238.28125 108.886719 C 238.105469 108.710938 238.023438 108.496094 238.027344 108.246094 L 238.21875 99.351562 C 238.25 97.953125 238.714844 97.800781 239.605469 98.894531 C 240.875 100.4375 241.957031 102.125 242.855469 103.960938 C 242.882812 104.011719 242.921875 104.054688 242.96875 104.085938 C 243.019531 104.117188 243.074219 104.136719 243.132812 104.140625 C 243.191406 104.144531 243.246094 104.132812 243.300781 104.105469 C 243.355469 104.078125 243.398438 104.039062 243.433594 103.992188 L 246.90625 98.984375 C 247.824219 97.660156 248.296875 97.804688 248.324219 99.414062 L 248.492188 108.71875 C 248.496094 109.050781 248.332031 109.21875 248 109.21875 L 247.6875 109.21875 C 247.539062 109.21875 247.414062 109.164062 247.316406 109.058594 C 247.214844 108.953125 247.167969 108.828125 247.171875 108.679688 C 247.273438 106.164062 247.289062 104.246094 247.210938 102.933594 C 247.148438 101.890625 246.820312 101.796875 246.222656 102.65625 L 244.039062 105.808594 C 243.953125 105.929688 243.847656 106.027344 243.714844 106.09375 C 243.582031 106.160156 243.441406 106.195312 243.292969 106.191406 C 243.144531 106.1875 243.003906 106.148438 242.875 106.074219 C 242.742188 106.003906 242.636719 105.902344 242.558594 105.777344 L 240.519531 102.542969 C 239.789062 101.390625 239.414062 101.480469 239.398438 102.808594 Z M 239.398438 102.808594 " fill-opacity="1" fill-rule="nonzero"/><path fill="#fb2f07" d="M 260.101562 98.234375 C 260.476562 98.234375 260.78125 98.460938 261.023438 98.917969 C 262.53125 101.738281 263.9375 105.03125 265.246094 108.804688 C 265.339844 109.058594 265.25 109.1875 264.976562 109.1875 L 264.480469 109.1875 C 264.164062 109.1875 263.917969 109.054688 263.746094 108.789062 L 262.703125 107.148438 C 262.613281 107.011719 262.390625 106.929688 262.027344 106.910156 C 261.824219 106.902344 261.183594 106.894531 260.101562 106.894531 C 259.019531 106.894531 258.375 106.902344 258.171875 106.910156 C 257.808594 106.929688 257.585938 107.011719 257.496094 107.148438 L 256.453125 108.78125 C 256.28125 109.046875 256.035156 109.179688 255.71875 109.179688 L 255.222656 109.179688 C 254.949219 109.179688 254.859375 109.050781 254.953125 108.796875 C 256.265625 105.03125 257.675781 101.738281 259.183594 98.917969 C 259.425781 98.460938 259.730469 98.234375 260.101562 98.234375 Z M 258.066406 104.503906 C 258.019531 104.609375 258 104.71875 258.007812 104.835938 C 258.019531 104.953125 258.054688 105.058594 258.117188 105.152344 C 258.179688 105.25 258.265625 105.328125 258.367188 105.382812 C 258.46875 105.4375 258.578125 105.464844 258.691406 105.460938 L 261.492188 105.453125 C 261.605469 105.453125 261.714844 105.425781 261.816406 105.371094 C 261.914062 105.316406 261.996094 105.238281 262.058594 105.144531 C 262.121094 105.046875 262.160156 104.941406 262.167969 104.828125 C 262.175781 104.710938 262.160156 104.601562 262.113281 104.496094 L 260.710938 101.292969 C 260.589844 101.019531 260.378906 100.886719 260.082031 100.886719 C 259.785156 100.890625 259.578125 101.027344 259.460938 101.300781 Z M 258.066406 104.503906 " fill-opacity="1" fill-rule="nonzero"/><path fill="#fb2f07" d="M 279.59375 104.910156 C 279.113281 104.59375 278.457031 104.46875 277.625 104.535156 C 277.230469 104.570312 277.035156 104.390625 277.035156 103.992188 L 277.035156 103.605469 C 277.035156 103.328125 277.175781 103.1875 277.457031 103.1875 L 280.953125 103.1875 C 281.132812 103.1875 281.289062 103.25 281.417969 103.382812 C 281.546875 103.511719 281.613281 103.667969 281.613281 103.851562 L 281.613281 108.367188 C 281.613281 108.726562 281.433594 108.917969 281.074219 108.949219 C 280.523438 108.992188 278.847656 109.191406 276.046875 109.554688 C 275.886719 109.574219 275.511719 109.53125 274.914062 109.417969 C 274.433594 109.332031 274.082031 109.210938 273.863281 109.058594 C 271.671875 107.558594 270.605469 105.765625 270.671875 103.667969 C 270.851562 98.1875 277.335938 96.289062 280.828125 100.050781 C 281.664062 100.949219 281.464844 101.242188 280.230469 100.933594 C 277.964844 100.363281 276.515625 98.976562 274.046875 100.449219 C 271.992188 101.675781 272.070312 104.734375 273.457031 106.527344 C 274.988281 108.5 277.035156 108.644531 279.59375 106.964844 C 279.769531 106.851562 279.90625 106.703125 280.003906 106.519531 C 280.101562 106.339844 280.152344 106.144531 280.152344 105.9375 C 280.152344 105.730469 280.101562 105.535156 280.003906 105.351562 C 279.90625 105.171875 279.769531 105.023438 279.59375 104.910156 Z M 279.59375 104.910156 " fill-opacity="1" fill-rule="nonzero"/><path fill="#fb2f07" d="M 290.003906 107.292969 L 289.109375 108.589844 C 288.863281 108.941406 288.523438 109.132812 288.097656 109.15625 C 288.050781 109.160156 287.96875 109.167969 287.851562 109.171875 C 287.390625 109.199219 287.261719 109.003906 287.46875 108.589844 C 288.390625 106.699219 289.355469 104.433594 290.355469 101.796875 C 290.878906 100.414062 291.558594 99.273438 292.394531 98.371094 C 292.484375 98.273438 292.589844 98.203125 292.714844 98.164062 C 292.839844 98.121094 292.96875 98.109375 293.097656 98.132812 C 293.226562 98.15625 293.34375 98.207031 293.449219 98.289062 C 293.550781 98.371094 293.632812 98.472656 293.683594 98.59375 L 297.9375 108.503906 C 298.070312 108.828125 297.972656 109.035156 297.640625 109.132812 C 297.535156 109.167969 297.457031 109.183594 297.402344 109.179688 C 296.902344 109.152344 296.519531 108.921875 296.257812 108.480469 L 295.515625 107.234375 C 295.371094 106.996094 295.164062 106.878906 294.886719 106.878906 L 290.792969 106.878906 C 290.457031 106.878906 290.195312 107.019531 290.003906 107.292969 Z M 290.671875 104.65625 C 290.636719 104.75 290.625 104.84375 290.636719 104.945312 C 290.648438 105.042969 290.683594 105.132812 290.738281 105.214844 C 290.792969 105.296875 290.863281 105.359375 290.953125 105.40625 C 291.039062 105.453125 291.132812 105.476562 291.230469 105.476562 L 294.066406 105.5 C 294.167969 105.503906 294.261719 105.480469 294.351562 105.433594 C 294.441406 105.386719 294.515625 105.324219 294.570312 105.242188 C 294.628906 105.160156 294.664062 105.070312 294.675781 104.96875 C 294.6875 104.871094 294.675781 104.773438 294.640625 104.679688 L 293.246094 100.917969 C 293.152344 100.652344 292.960938 100.519531 292.683594 100.519531 C 292.402344 100.519531 292.210938 100.648438 292.113281 100.910156 Z M 290.671875 104.65625 " fill-opacity="1" fill-rule="nonzero"/><path fill="#ff6216" d="M 308.84375 104.398438 C 308.292969 105.003906 307.5 105.878906 306.46875 107.019531 C 305.902344 107.648438 306.042969 107.960938 306.890625 107.960938 L 312.15625 107.960938 C 312.542969 107.960938 312.738281 108.15625 312.738281 108.542969 L 312.738281 108.902344 C 312.738281 108.996094 312.707031 109.078125 312.644531 109.148438 C 312.582031 109.21875 312.503906 109.257812 312.410156 109.265625 C 309.777344 109.484375 307.019531 109.449219 304.140625 109.15625 C 304.058594 109.148438 303.984375 109.121094 303.914062 109.074219 C 303.847656 109.03125 303.792969 108.972656 303.753906 108.898438 C 303.714844 108.828125 303.695312 108.75 303.695312 108.667969 C 303.699219 108.585938 303.71875 108.507812 303.753906 108.4375 C 304.632812 106.867188 305.921875 105.144531 307.617188 103.261719 C 308.171875 102.65625 308.960938 101.78125 309.996094 100.640625 C 310.5625 100.011719 310.421875 99.699219 309.574219 99.699219 L 304.308594 99.699219 C 303.917969 99.699219 303.726562 99.503906 303.726562 99.117188 L 303.726562 98.753906 C 303.726562 98.660156 303.757812 98.582031 303.820312 98.511719 C 303.882812 98.441406 303.960938 98.402344 304.054688 98.394531 C 306.6875 98.175781 309.441406 98.210938 312.324219 98.503906 C 312.40625 98.511719 312.480469 98.539062 312.550781 98.582031 C 312.617188 98.628906 312.671875 98.6875 312.710938 98.761719 C 312.746094 98.832031 312.765625 98.910156 312.765625 98.992188 C 312.765625 99.074219 312.746094 99.152344 312.707031 99.222656 C 311.828125 100.792969 310.542969 102.515625 308.84375 104.398438 Z M 308.84375 104.398438 " fill-opacity="1" fill-rule="nonzero"/><path fill="#fb2f07" d="M 332.230469 104.289062 C 331.824219 103.753906 331.445312 103.1875 331.097656 102.585938 C 330.820312 102.101562 330.582031 101.820312 330.382812 101.746094 C 329.933594 101.570312 329.710938 101.722656 329.710938 102.203125 L 329.710938 108.742188 C 329.710938 109.101562 329.535156 109.3125 329.1875 109.378906 C 329.113281 109.390625 329.039062 109.398438 328.964844 109.402344 C 328.460938 109.417969 328.207031 109.171875 328.207031 108.667969 L 328.207031 99.132812 C 328.207031 98.792969 328.359375 98.554688 328.671875 98.417969 C 328.984375 98.285156 329.261719 98.332031 329.511719 98.5625 C 331.050781 99.996094 332.445312 102.011719 333.519531 103.398438 C 333.925781 103.9375 334.304688 104.503906 334.652344 105.101562 C 334.929688 105.585938 335.167969 105.867188 335.367188 105.945312 C 335.816406 106.117188 336.039062 105.964844 336.039062 105.484375 L 336.039062 98.945312 C 336.039062 98.589844 336.214844 98.378906 336.5625 98.3125 C 336.636719 98.300781 336.710938 98.292969 336.785156 98.289062 C 337.289062 98.273438 337.542969 98.519531 337.542969 99.023438 L 337.542969 108.558594 C 337.542969 108.898438 337.390625 109.136719 337.078125 109.269531 C 336.765625 109.40625 336.488281 109.359375 336.238281 109.125 C 334.699219 107.691406 333.304688 105.675781 332.230469 104.289062 Z M 332.230469 104.289062 " fill-opacity="1" fill-rule="nonzero"/><path fill="#fb2f07" d="M 346.273438 104.550781 L 346.65625 107.808594 C 346.675781 107.933594 346.746094 107.996094 346.871094 108 L 352.28125 108.074219 C 352.355469 108.078125 352.414062 108.105469 352.457031 108.160156 C 352.5 108.21875 352.515625 108.28125 352.496094 108.351562 L 352.328125 109.085938 C 352.304688 109.203125 352.234375 109.261719 352.113281 109.265625 L 345.007812 109.433594 C 344.855469 109.4375 344.777344 109.363281 344.777344 109.210938 L 344.734375 98.433594 C 344.734375 98.285156 344.808594 98.210938 344.953125 98.210938 L 351.808594 98.203125 C 351.875 98.203125 351.929688 98.230469 351.976562 98.285156 C 352.019531 98.335938 352.035156 98.398438 352.023438 98.464844 L 351.855469 99.46875 C 351.832031 99.589844 351.761719 99.648438 351.640625 99.652344 L 346.574219 99.746094 C 346.429688 99.75 346.359375 99.824219 346.359375 99.964844 L 346.3125 102.394531 C 346.304688 102.550781 346.378906 102.625 346.535156 102.625 L 350.828125 102.75 C 350.894531 102.75 350.949219 102.777344 350.992188 102.828125 C 351.035156 102.882812 351.054688 102.941406 351.042969 103.007812 L 350.878906 104.027344 C 350.859375 104.148438 350.789062 104.210938 350.664062 104.210938 L 346.488281 104.296875 C 346.421875 104.300781 346.367188 104.324219 346.324219 104.375 C 346.28125 104.425781 346.265625 104.484375 346.273438 104.550781 Z M 346.273438 104.550781 " fill-opacity="1" fill-rule="nonzero"/><path fill="#ff6216" d="M 320.019531 99.464844 L 320.265625 99.460938 C 320.453125 99.457031 320.617188 99.519531 320.75 99.648438 C 320.886719 99.78125 320.957031 99.941406 320.960938 100.128906 L 321.121094 108.40625 C 321.125 108.59375 321.058594 108.753906 320.929688 108.890625 C 320.796875 109.027344 320.640625 109.097656 320.449219 109.101562 L 320.207031 109.105469 C 320.015625 109.109375 319.855469 109.042969 319.71875 108.914062 C 319.582031 108.785156 319.515625 108.625 319.511719 108.4375 L 319.351562 100.160156 C 319.347656 99.96875 319.410156 99.808594 319.542969 99.671875 C 319.671875 99.535156 319.832031 99.46875 320.019531 99.464844 Z M 320.019531 99.464844 " fill-opacity="1" fill-rule="nonzero"/></svg>