<?xml version="1.0" encoding="UTF-8" standalone="no"?>
<!DOCTYPE svg PUBLIC "-//W3C//DTD SVG 1.1//EN" "http://www.w3.org/Graphics/SVG/1.1/DTD/svg11.dtd">
<svg xmlns="http://www.w3.org/2000/svg" version="1.1" viewBox="0.00 0.00 500.00 500.00">
<g stroke-width="2.00" fill="none" stroke-linecap="butt">
<path stroke="#ff460b" vector-effect="non-scaling-stroke" d="
  M 268.55 192.74
  L 256.85 195.37"
/>
<path stroke="#07326a" vector-effect="non-scaling-stroke" d="
  M 189.56 290.38
  C 192.69 282.45 199.05 267.18 203.32 255.36
  C 206.63 246.22 208.04 235.40 195.88 232.37
  C 188.91 230.64 181.24 230.77 171.95 230.66
  Q 148.01 230.38 123.74 230.79
  Q 119.67 230.86 114.85 231.96
  C 108.39 233.44 105.80 238.67 105.26 244.62
  C 104.13 257.11 104.75 269.33 107.94 281.74
  C 112.27 298.52 118.75 314.89 127.76 329.83
  C 132.19 337.16 150.29 369.93 161.67 354.47
  Q 164.22 351.01 165.83 347.29
  Q 179.40 316.10 189.56 290.38"
/>
<path stroke="#07326a" vector-effect="non-scaling-stroke" d="
  M 271.57 330.37
  C 267.76 338.48 264.48 346.47 261.05 355.70
  C 257.50 365.27 254.74 372.74 251.07 380.84
  C 249.01 385.40 244.48 393.97 251.76 396.04
  Q 254.32 396.76 255.75 396.72
  C 268.27 396.36 281.58 395.00 292.96 391.38
  Q 322.51 381.99 345.27 361.51
  Q 353.75 353.89 361.35 345.35
  C 369.68 335.99 374.72 326.94 381.00 315.22
  Q 386.89 304.21 390.91 289.77
  Q 395.99 271.55 396.21 250.63
  C 396.27 245.09 396.35 237.33 391.68 233.64
  C 389.46 231.88 385.43 231.11 382.67 231.06
  Q 352.94 230.53 325.79 230.71
  C 317.65 230.77 310.17 231.58 307.26 240.00
  Q 302.83 252.82 301.91 255.46
  Q 299.29 262.92 295.85 270.65
  Q 286.38 291.89 284.29 296.85
  Q 279.45 308.32 275.59 320.18
  Q 273.84 325.54 271.57 330.37"
/>
</g>
<path fill="#ff6216" d="
  M 268.55 192.74
  L 256.85 195.37
  Q 250.19 190.28 241.27 188.95
  Q 231.64 187.51 222.50 187.53
  Q 171.09 187.62 117.50 187.54
  Q 115.27 187.53 113.66 187.17
  Q 113.16 187.06 113.15 186.55
  Q 113.12 185.26 114.61 182.58
  Q 122.98 167.49 133.74 153.74
  C 147.70 135.92 165.46 122.79 185.81 112.83
  Q 195.53 108.07 204.31 105.34
  Q 247.52 91.91 291.37 103.86
  Q 300.39 106.32 307.11 109.06
  Q 343.42 123.85 368.57 154.40
  Q 378.73 166.73 388.50 184.43
  Q 389.05 185.42 389.04 186.48
  A 1.05 1.05 0.0 0 1 387.99 187.51
  Q 332.70 187.55 278.50 187.74
  Q 276.58 187.75 266.50 187.27
  Q 264.85 187.19 265.14 188.36
  A 0.60 0.55 20.8 0 0 265.25 188.58
  L 268.55 192.74
  Z"
/>
<path fill="#ff2a00" d="
  M 268.55 192.74
  C 277.78 203.06 283.48 214.99 282.09 228.37
  Q 281.55 233.54 279.07 240.83
  Q 271.02 264.48 265.30 277.90
  Q 263.26 282.69 259.92 291.64
  C 257.61 297.84 254.65 304.38 252.51 309.89
  Q 238.94 344.72 234.16 356.44
  Q 228.50 370.35 224.26 381.63
  C 222.37 386.66 219.55 392.47 217.77 396.01
  C 215.79 399.93 210.83 399.64 207.67 397.77
  A 1.74 1.73 24.4 0 1 206.90 395.74
  Q 208.15 391.91 210.61 386.44
  Q 213.73 379.50 214.59 377.38
  Q 223.46 355.26 231.61 334.77
  Q 233.47 330.11 235.05 326.08
  Q 249.59 289.10 253.86 278.82
  Q 260.79 262.12 266.85 245.08
  Q 269.21 238.45 270.41 230.70
  Q 273.73 209.26 256.85 195.37
  L 268.55 192.74
  Z"
/>
<path fill="#01235d" d="
  M 134.96 351.06
  C 119.74 331.90 109.55 309.38 102.95 285.28
  Q 100.07 274.73 99.23 267.26
  Q 96.96 247.03 99.64 225.44
  A 0.88 0.87 3.3 0 1 100.51 224.67
  Q 139.86 224.58 199.05 224.69
  Q 204.05 224.70 206.84 225.92
  Q 208.79 226.76 211.28 229.95
  Q 216.01 236.01 214.66 242.65
  Q 213.84 246.69 211.91 251.43
  Q 210.37 255.19 189.34 307.06
  Q 182.24 324.58 162.55 372.77
  A 1.45 1.45 0.0 0 1 160.58 373.53
  Q 160.35 373.42 160.03 373.22
  Q 145.62 364.48 134.96 351.06
  Z
  M 189.56 290.38
  C 192.69 282.45 199.05 267.18 203.32 255.36
  C 206.63 246.22 208.04 235.40 195.88 232.37
  C 188.91 230.64 181.24 230.77 171.95 230.66
  Q 148.01 230.38 123.74 230.79
  Q 119.67 230.86 114.85 231.96
  C 108.39 233.44 105.80 238.67 105.26 244.62
  C 104.13 257.11 104.75 269.33 107.94 281.74
  C 112.27 298.52 118.75 314.89 127.76 329.83
  C 132.19 337.16 150.29 369.93 161.67 354.47
  Q 164.22 351.01 165.83 347.29
  Q 179.40 316.10 189.56 290.38
  Z"
/>
<path fill="#01235d" d="
  M 308.48 391.66
  Q 297.06 396.60 286.06 399.05
  Q 267.74 403.15 248.53 402.91
  Q 242.15 402.83 236.57 402.03
  A 0.89 0.88 14.8 0 1 235.87 400.83
  Q 236.32 399.73 239.57 391.55
  Q 241.18 387.52 243.40 382.34
  Q 248.85 369.60 251.77 361.48
  Q 251.89 361.16 256.50 349.58
  Q 293.80 255.93 297.77 246.23
  Q 301.20 237.82 304.90 230.63
  Q 307.86 224.84 314.98 224.78
  Q 358.17 224.43 399.71 224.62
  A 1.43 1.42 86.8 0 1 401.12 225.89
  C 403.26 246.12 403.81 267.39 399.18 286.24
  Q 397.34 293.74 393.38 304.17
  Q 389.60 314.11 385.77 321.35
  Q 364.61 361.34 324.67 383.90
  Q 320.60 386.20 316.69 388.03
  Q 314.65 388.98 308.48 391.66
  Z
  M 271.57 330.37
  C 267.76 338.48 264.48 346.47 261.05 355.70
  C 257.50 365.27 254.74 372.74 251.07 380.84
  C 249.01 385.40 244.48 393.97 251.76 396.04
  Q 254.32 396.76 255.75 396.72
  C 268.27 396.36 281.58 395.00 292.96 391.38
  Q 322.51 381.99 345.27 361.51
  Q 353.75 353.89 361.35 345.35
  C 369.68 335.99 374.72 326.94 381.00 315.22
  Q 386.89 304.21 390.91 289.77
  Q 395.99 271.55 396.21 250.63
  C 396.27 245.09 396.35 237.33 391.68 233.64
  C 389.46 231.88 385.43 231.11 382.67 231.06
  Q 352.94 230.53 325.79 230.71
  C 317.65 230.77 310.17 231.58 307.26 240.00
  Q 302.83 252.82 301.91 255.46
  Q 299.29 262.92 295.85 270.65
  Q 286.38 291.89 284.29 296.85
  Q 279.45 308.32 275.59 320.18
  Q 273.84 325.54 271.57 330.37
  Z"
/>
<path fill="#0c4177" d="
  M 189.56 290.38
  Q 179.40 316.10 165.83 347.29
  Q 164.22 351.01 161.67 354.47
  C 150.29 369.93 132.19 337.16 127.76 329.83
  C 118.75 314.89 112.27 298.52 107.94 281.74
  C 104.75 269.33 104.13 257.11 105.26 244.62
  C 105.80 238.67 108.39 233.44 114.85 231.96
  Q 119.67 230.86 123.74 230.79
  Q 148.01 230.38 171.95 230.66
  C 181.24 230.77 188.91 230.64 195.88 232.37
  C 208.04 235.40 206.63 246.22 203.32 255.36
  C 199.05 267.18 192.69 282.45 189.56 290.38
  Z"
/>
<path fill="#0c4177" d="
  M 275.59 320.18
  Q 279.45 308.32 284.29 296.85
  Q 286.38 291.89 295.85 270.65
  Q 299.29 262.92 301.91 255.46
  Q 302.83 252.82 307.26 240.00
  C 310.17 231.58 317.65 230.77 325.79 230.71
  Q 352.94 230.53 382.67 231.06
  C 385.43 231.11 389.46 231.88 391.68 233.64
  C 396.35 237.33 396.27 245.09 396.21 250.63
  Q 395.99 271.55 390.91 289.77
  Q 386.89 304.21 381.00 315.22
  C 374.72 326.94 369.68 335.99 361.35 345.35
  Q 353.75 353.89 345.27 361.51
  Q 322.51 381.99 292.96 391.38
  C 281.58 395.00 268.27 396.36 255.75 396.72
  Q 254.32 396.76 251.76 396.04
  C 244.48 393.97 249.01 385.40 251.07 380.84
  C 254.74 372.74 257.50 365.27 261.05 355.70
  C 264.48 346.47 267.76 338.48 271.57 330.37
  Q 273.84 325.54 275.59 320.18
  Z"
/>
</svg>
