<?xml version="1.0" encoding="UTF-8" standalone="no"?>
<!DOCTYPE svg PUBLIC "-//W3C//DTD SVG 1.1//EN" "http://www.w3.org/Graphics/SVG/1.1/DTD/svg11.dtd">
<svg xmlns="http://www.w3.org/2000/svg" version="1.1" viewBox="0.00 0.00 1080.00 1080.00">
<path stroke="#815045" stroke-width="2.00" fill="none" stroke-linecap="butt" vector-effect="non-scaling-stroke" d="
  M 890.39 877.30
  L 890.35 877.95"
/>
<path fill="#f96014" d="
  M 559.76 288.92
  Q 563.29 291.75 565.86 294.28
  Q 580.01 308.24 582.12 328.94
  Q 583.32 340.71 580.35 352.35
  Q 578.47 359.74 575.02 368.29
  Q 565.19 392.67 559.45 406.35
  Q 555.01 416.95 551.88 424.87
  Q 547.92 434.88 543.52 445.23
  Q 539.44 454.84 533.61 469.49
  Q 532.23 472.95 528.89 480.65
  C 526.74 485.61 524.53 491.56 522.85 495.66
  Q 499.96 551.51 496.88 559.05
  A 1.39 1.39 0.0 0 1 495.37 559.89
  Q 488.59 558.71 481.70 555.59
  Q 481.22 555.37 481.41 554.88
  Q 481.80 553.92 482.92 551.29
  Q 487.66 540.18 517.11 468.69
  Q 522.11 456.57 524.64 450.21
  Q 531.22 433.63 536.01 422.11
  Q 538.55 415.98 560.35 362.85
  Q 566.18 348.65 566.08 335.63
  Q 565.89 311.09 547.86 297.65
  Q 541.42 292.85 532.67 290.35
  Q 523.34 287.68 515.76 287.66
  Q 462.28 287.50 364.38 287.65
  A 0.37 0.37 0.0 0 1 364.04 287.11
  Q 375.12 264.44 390.97 245.32
  Q 397.33 237.65 404.56 230.69
  Q 444.15 192.58 497.29 179.81
  Q 520.57 174.22 544.27 174.54
  C 577.38 174.97 609.46 183.22 638.11 199.15
  Q 676.21 220.32 702.27 255.40
  Q 712.34 268.95 721.47 287.34
  A 0.19 0.19 0.0 0 1 721.30 287.61
  L 560.22 287.61
  Q 558.12 287.61 559.76 288.92
  Z"
/>
<path fill="#083f75" d="
  M 423.51 526.10
  C 419.11 522.28 414.19 518.69 410.27 515.07
  Q 354.34 463.49 346.23 388.84
  Q 345.06 378.13 345.24 368.89
  Q 345.52 354.18 347.97 338.23
  Q 348.26 336.32 348.74 335.10
  Q 348.93 334.63 349.44 334.63
  Q 431.68 334.50 472.00 334.61
  Q 481.39 334.64 487.50 340.43
  C 495.33 347.84 494.10 358.61 490.35 367.59
  Q 432.60 505.82 424.21 525.93
  Q 423.97 526.51 423.51 526.10
  Z"
/>
<path fill="#083f75" d="
  M 672.39 516.89
  Q 629.75 553.83 571.98 562.96
  Q 564.41 564.16 552.26 565.16
  Q 536.14 566.49 520.61 564.07
  A 0.80 0.79 15.8 0 1 519.99 562.98
  Q 562.86 458.31 607.80 348.84
  Q 611.75 339.20 620.45 336.05
  Q 624.65 334.53 637.20 334.55
  Q 676.40 334.60 735.46 334.61
  Q 736.83 334.61 737.06 335.95
  Q 745.21 382.53 731.32 427.36
  Q 715.03 479.94 672.39 516.89
  Z"
/>
<path fill="#083f75" d="
  M 256.53 704.59
  Q 255.16 704.59 255.16 705.96
  L 255.16 823.54
  Q 255.16 823.97 254.73 823.97
  L 227.81 823.97
  A 1.04 1.04 0.0 0 1 226.77 822.93
  Q 226.90 714.89 226.75 708.07
  Q 226.71 706.61 226.67 705.69
  Q 226.61 704.57 225.48 704.57
  L 185.01 704.57
  Q 184.06 704.57 183.97 703.62
  C 183.11 694.83 183.66 684.61 193.59 681.29
  Q 196.25 680.40 203.00 680.39
  Q 261.39 680.34 296.86 680.46
  A 0.55 0.54 0.0 0 1 297.41 681.00
  L 297.41 704.29
  Q 297.41 704.59 297.11 704.59
  L 256.53 704.59
  Z"
/>
<path fill="#083f75" d="
  M 663.91 713.61
  L 678.65 713.61
  A 0.78 0.77 88.0 0 1 679.42 714.34
  Q 679.77 719.39 678.47 724.18
  Q 677.87 726.41 675.52 728.55
  Q 670.45 733.14 663.18 732.57
  A 0.90 0.90 0.0 0 0 662.21 733.47
  Q 662.12 769.33 662.39 794.77
  C 662.44 800.33 664.91 802.53 670.34 802.77
  Q 674.44 802.95 678.62 802.81
  Q 679.38 802.78 679.38 803.54
  L 679.38 823.74
  A 0.44 0.44 0.0 0 1 678.95 824.18
  Q 674.71 824.26 665.52 824.32
  Q 657.24 824.38 649.13 823.18
  C 636.87 821.38 634.37 811.85 634.39 801.27
  Q 634.42 785.91 634.45 682.23
  Q 634.45 680.45 636.22 680.42
  Q 639.10 680.38 648.29 680.45
  C 656.13 680.51 662.19 686.25 662.24 694.24
  Q 662.31 704.37 662.22 711.91
  A 1.69 1.68 0.3 0 0 663.91 713.61
  Z"
/>
<path fill="#f96014" d="
  M 507.08 685.97
  Q 509.21 688.49 509.40 691.83
  Q 509.60 695.44 509.65 701.20
  Q 509.66 702.12 508.75 702.13
  Q 495.03 702.32 482.60 701.92
  A 0.70 0.70 0.0 0 1 481.92 701.22
  L 481.92 681.22
  A 0.72 0.71 89.6 0 1 482.62 680.50
  Q 485.72 680.45 495.54 680.53
  Q 502.52 680.59 507.08 685.97
  Z"
/>
<path fill="#083f75" d="
  M 439.67 736.24
  Q 437.05 734.39 433.22 733.62
  Q 423.16 731.59 414.63 733.88
  Q 409.18 735.35 406.69 739.96
  A 1.76 1.74 -75.5 0 1 405.16 740.87
  L 379.84 740.87
  A 0.44 0.43 -84.5 0 1 379.42 740.35
  Q 380.71 733.87 383.99 728.03
  C 388.30 720.37 397.87 714.48 406.13 712.60
  Q 426.16 708.04 446.29 713.53
  C 454.09 715.66 461.76 720.18 465.83 727.23
  Q 469.62 733.77 469.71 743.25
  Q 469.99 774.47 469.70 782.75
  Q 469.62 785.20 468.50 791.88
  Q 467.56 797.50 466.12 800.72
  Q 460.54 813.15 449.26 819.24
  Q 443.40 822.40 436.25 823.79
  Q 421.96 826.58 409.08 825.53
  Q 394.20 824.31 384.67 815.36
  Q 379.45 810.46 377.44 801.82
  Q 376.41 797.38 376.48 789.29
  Q 376.55 781.82 378.57 776.99
  Q 382.57 767.44 391.61 763.03
  Q 405.08 756.46 421.03 755.23
  Q 430.60 754.49 437.55 751.09
  Q 443.76 748.04 442.98 741.75
  Q 442.55 738.27 439.67 736.24
  Z
  M 443.23 768.06
  A 0.47 0.46 76.4 0 0 442.58 767.66
  C 434.12 771.42 429.38 771.96 416.56 775.31
  C 412.32 776.41 406.53 778.45 404.53 782.31
  Q 402.12 786.93 402.54 792.43
  C 402.97 798.15 405.90 801.81 411.38 803.62
  C 417.65 805.69 425.41 804.20 431.16 801.46
  C 438.53 797.95 442.35 790.94 443.09 782.72
  Q 443.71 775.92 443.23 768.06
  Z"
/>
<path fill="#083f75" d="
  M 547.96 776.84
  C 548.19 784.30 550.38 792.17 555.18 796.96
  C 561.02 802.77 569.34 803.46 577.13 802.13
  Q 584.85 800.82 589.92 793.98
  Q 592.19 790.92 597.33 790.74
  Q 605.41 790.47 618.04 790.64
  A 0.73 0.73 0.0 0 1 618.73 791.57
  Q 613.89 807.93 600.90 816.95
  C 590.05 824.49 577.67 826.37 564.42 825.64
  C 544.54 824.53 528.43 811.60 522.87 792.54
  Q 515.21 766.33 523.31 742.03
  Q 528.89 725.30 543.85 716.65
  Q 551.65 712.15 562.85 710.94
  Q 575.65 709.56 587.54 713.25
  Q 603.96 718.35 611.96 731.58
  Q 618.22 741.92 619.83 754.97
  Q 621.08 765.12 620.86 774.60
  A 0.61 0.61 0.0 0 1 620.25 775.20
  L 549.55 775.20
  Q 547.90 775.20 547.96 776.84
  Z
  M 548.92 757.73
  L 591.16 757.73
  A 0.73 0.73 0.0 0 0 591.89 757.00
  L 591.89 755.19
  A 21.54 21.01 -90.0 0 0 570.88 733.65
  L 569.20 733.65
  A 21.54 21.01 90.0 0 0 548.19 755.19
  L 548.19 757.00
  A 0.73 0.73 0.0 0 0 548.92 757.73
  Z"
/>
<path fill="#083f75" d="
  M 786.57 767.95
  Q 786.58 770.39 786.13 776.28
  C 785.08 789.91 780.05 804.28 770.19 813.53
  C 759.45 823.62 744.05 826.82 729.45 825.38
  Q 720.58 824.50 713.50 821.44
  Q 693.73 812.89 687.96 790.52
  Q 685.19 779.79 685.16 768.23
  Q 685.13 756.67 687.84 745.93
  Q 693.48 723.53 713.20 714.87
  Q 720.27 711.77 729.13 710.84
  C 743.72 709.32 759.14 712.43 769.94 722.46
  C 779.85 731.66 784.96 746.00 786.08 759.62
  Q 786.57 765.51 786.57 767.95
  Z
  M 757.71 753.64
  C 755.95 745.20 749.58 736.65 741.27 734.55
  C 733.46 732.57 722.43 735.80 718.08 742.82
  C 715.26 747.38 713.25 752.42 712.80 757.84
  Q 711.98 767.74 712.94 777.73
  Q 713.29 781.37 714.44 785.27
  C 716.18 791.20 718.50 796.72 724.03 799.94
  Q 728.41 802.49 733.39 802.99
  C 745.96 804.25 754.87 795.43 757.46 783.28
  Q 760.72 768.05 757.71 753.64
  Z"
/>
<path fill="#083f75" d="
  M 858.99 737.80
  Q 854.45 734.17 849.28 733.42
  C 845.43 732.87 839.59 733.11 835.72 734.83
  Q 824.77 739.69 824.81 753.51
  Q 824.89 781.11 824.87 823.49
  A 0.58 0.58 0.0 0 1 824.29 824.07
  L 797.74 824.07
  A 0.82 0.82 0.0 0 1 796.92 823.26
  Q 796.83 791.16 797.02 758.53
  Q 797.03 755.65 797.41 749.54
  Q 798.13 737.83 804.17 728.21
  Q 806.01 725.27 808.24 723.54
  Q 821.25 713.46 839.12 711.08
  C 850.87 709.52 862.73 712.47 873.46 717.94
  Q 881.09 721.83 885.48 727.95
  Q 888.90 732.71 891.02 741.94
  Q 893.54 752.88 893.52 764.00
  Q 893.52 766.60 893.48 823.65
  A 0.45 0.45 0.0 0 1 893.04 824.10
  Q 882.67 824.28 878.89 824.05
  Q 871.62 823.60 867.39 818.05
  Q 865.71 815.85 865.34 813.25
  Q 864.89 810.05 864.89 799.88
  Q 864.89 768.04 865.01 752.76
  Q 865.05 747.51 863.91 744.53
  Q 862.37 740.51 858.99 737.80
  Z"
/>
<path fill="#083f75" d="
  M 370.60 739.25
  Q 370.66 740.57 370.65 740.88
  Q 370.61 741.76 369.73 741.77
  Q 363.97 741.85 357.27 742.10
  Q 343.75 742.60 338.64 754.42
  Q 336.71 758.89 336.69 766.54
  Q 336.63 784.88 336.62 823.68
  A 0.34 0.34 0.0 0 1 336.28 824.02
  L 309.47 824.02
  A 0.78 0.78 0.0 0 1 308.69 823.24
  C 308.51 806.72 308.62 790.13 308.51 773.52
  C 308.39 756.06 311.39 738.37 325.39 726.07
  C 333.92 718.58 346.17 714.83 357.77 713.53
  Q 363.46 712.89 370.19 713.02
  A 0.41 0.41 0.0 0 1 370.59 713.43
  Q 370.34 733.65 370.60 739.25
  Z"
/>
<path fill="#083f75" d="
  M 480.24 845.38
  Q 481.66 843.02 481.65 840.00
  Q 481.52 753.97 481.59 714.31
  Q 481.60 713.20 482.71 713.18
  Q 489.04 713.10 491.76 713.09
  Q 498.07 713.07 500.71 713.92
  Q 505.77 715.55 508.34 720.65
  Q 509.61 723.17 509.62 727.56
  Q 509.66 824.08 509.67 833.78
  Q 509.67 839.25 509.76 841.73
  Q 509.97 847.08 509.61 849.67
  C 508.72 856.16 504.56 863.24 498.65 866.10
  Q 494.65 868.04 489.30 869.05
  Q 480.73 870.68 470.69 870.62
  Q 469.70 870.62 469.70 869.63
  L 469.70 848.02
  A 0.97 0.97 0.0 0 1 470.70 847.05
  Q 475.73 847.22 479.49 845.97
  Q 479.98 845.81 480.24 845.38
  Z"
/>
<path fill="#f96014" d="
  M 662.93 876.96
  A 0.82 0.81 -33.5 0 0 661.73 876.72
  Q 656.35 880.86 650.42 880.69
  Q 644.27 880.51 639.76 877.08
  C 633.46 872.30 631.51 864.44 633.86 856.76
  Q 636.34 848.65 644.69 845.66
  Q 650.42 843.61 655.41 845.18
  Q 660.88 846.91 664.96 851.19
  Q 666.35 852.65 664.43 853.42
  L 664.07 853.56
  Q 662.26 854.29 660.64 853.07
  C 658.93 851.77 657.61 850.50 655.75 849.85
  C 643.61 845.57 633.96 857.42 638.94 868.53
  Q 640.90 872.91 644.26 874.38
  C 648.49 876.21 655.49 876.41 659.60 873.90
  Q 663.96 871.25 663.67 866.38
  A 1.09 1.09 0.0 0 0 662.58 865.35
  L 654.60 865.35
  Q 653.40 865.35 653.40 864.14
  L 653.40 862.85
  A 1.23 1.23 0.0 0 1 654.63 861.62
  L 666.46 861.62
  Q 667.36 861.62 667.36 862.53
  L 667.36 878.42
  A 0.97 0.95 -20.6 0 1 667.02 879.15
  Q 666.11 879.91 664.88 879.73
  A 0.81 0.80 -10.2 0 1 664.31 879.34
  L 662.93 876.96
  Z"
/>
<path fill="#f96014" d="
  M 607.46 872.00
  A 1.01 0.99 -15.9 0 0 606.54 871.50
  Q 600.44 871.77 593.99 871.32
  Q 591.06 871.11 589.71 873.74
  Q 588.66 875.79 587.40 878.51
  A 2.08 1.99 16.5 0 1 585.22 879.63
  L 584.25 879.48
  Q 582.65 879.24 583.27 877.74
  Q 593.03 854.36 595.59 848.36
  Q 596.91 845.24 599.27 844.82
  Q 599.76 844.73 600.19 844.99
  Q 601.69 845.92 602.44 847.60
  Q 609.32 863.13 615.56 878.75
  Q 615.96 879.78 614.86 879.78
  L 613.75 879.78
  A 3.12 3.12 0.0 0 1 611.05 878.22
  L 607.46 872.00
  Z
  M 592.81 866.09
  A 1.34 1.34 0.0 0 0 594.08 867.92
  L 604.47 867.81
  A 1.34 1.34 0.0 0 0 605.69 865.96
  L 600.36 853.08
  A 1.34 1.34 0.0 0 0 597.87 853.11
  L 592.81 866.09
  Z"
/>
<path fill="#f96014" d="
  M 758.81 849.95
  A 0.50 0.50 0.0 0 0 758.38 849.18
  Q 747.97 849.37 738.46 848.88
  Q 737.64 848.84 737.64 848.02
  L 737.64 846.00
  A 1.00 0.99 89.4 0 1 738.61 845.00
  Q 751.09 844.72 763.91 845.23
  Q 765.44 845.30 765.44 846.82
  Q 765.45 848.82 764.06 850.57
  Q 752.65 864.85 744.15 874.46
  A 0.50 0.50 0.0 0 0 744.52 875.30
  L 764.12 875.30
  Q 765.25 875.30 765.25 876.43
  L 765.25 878.61
  A 1.12 1.12 0.0 0 1 764.13 879.73
  Q 742.01 879.68 741.00 879.70
  Q 739.12 879.74 737.52 879.16
  A 1.49 1.49 0.0 0 1 736.59 877.36
  Q 737.19 875.23 739.13 872.88
  Q 747.12 863.15 758.00 851.01
  Q 758.44 850.52 758.81 849.95
  Z"
/>
<path fill="#f96014" d="
  M 837.63 870.29
  A 0.36 0.36 0.0 0 0 838.19 870.02
  C 838.86 862.21 838.49 853.57 838.74 847.20
  Q 838.82 845.00 840.88 844.82
  Q 840.93 844.81 840.96 844.80
  Q 842.97 844.31 843.05 846.60
  Q 843.55 860.63 843.27 875.25
  Q 843.23 877.20 842.97 878.69
  A 1.40 1.39 -84.1 0 1 841.55 879.85
  Q 838.84 879.77 837.68 878.21
  Q 825.83 862.32 822.19 856.95
  Q 820.74 854.79 819.70 854.56
  Q 819.18 854.43 819.07 854.96
  Q 818.68 856.90 818.64 858.69
  Q 818.55 862.59 818.48 878.67
  Q 818.48 879.53 817.62 879.53
  L 815.31 879.53
  A 1.41 1.41 0.0 0 1 813.90 878.15
  Q 813.52 863.02 814.42 846.00
  A 1.09 1.09 0.0 0 1 815.40 844.97
  Q 817.77 844.74 819.54 846.99
  Q 830.17 860.56 836.22 868.93
  Q 836.76 869.69 837.63 870.29
  Z"
/>
<path fill="#f96014" d="
  M 535.73 854.97
  A 0.81 0.80 -70.1 0 0 534.41 855.59
  L 534.41 878.16
  Q 534.41 879.55 533.03 879.55
  L 531.48 879.55
  Q 530.29 879.55 530.24 878.36
  Q 529.51 861.84 530.31 846.61
  A 1.76 1.76 0.0 0 1 531.97 844.94
  Q 534.34 844.81 535.69 847.08
  Q 535.70 847.10 545.68 864.23
  A 0.79 0.78 46.2 0 0 547.02 864.26
  Q 552.84 855.07 556.91 847.96
  Q 558.58 845.05 561.25 845.10
  A 1.70 1.69 -89.7 0 1 562.92 846.80
  L 562.92 877.97
  Q 562.92 879.64 561.26 879.64
  L 560.27 879.64
  Q 558.71 879.64 558.69 878.07
  Q 558.65 874.47 558.52 872.39
  Q 558.35 869.75 558.47 866.62
  Q 558.69 860.97 558.36 855.33
  Q 558.23 853.08 557.03 854.99
  C 553.71 860.29 550.91 865.96 547.19 870.89
  A 1.02 1.01 -42.5 0 1 545.52 870.82
  Q 541.72 864.81 538.03 858.01
  Q 536.91 855.95 535.73 854.97
  Z"
/>
<rect fill="#f96014" x="-2.43" y="-17.18" transform="translate(789.06,862.37) rotate(-0.4)" width="4.86" height="34.36" rx="1.10"/>
<path fill="#f96014" d="
  M 890.39 877.30
  L 890.35 877.95
  Q 890.43 878.75 890.18 879.21
  Q 889.95 879.64 889.18 879.65
  Q 877.88 879.79 866.72 879.70
  A 0.67 0.67 0.0 0 1 866.05 879.03
  L 866.05 845.38
  Q 866.05 845.05 866.38 845.05
  L 888.96 845.05
  Q 889.72 845.05 889.72 845.81
  L 889.72 848.09
  A 1.02 1.02 0.0 0 1 888.70 849.11
  L 873.10 849.11
  Q 870.90 849.11 870.90 851.31
  L 870.90 858.17
  A 1.49 1.48 87.4 0 0 872.52 859.65
  Q 878.74 859.09 885.55 859.58
  Q 886.02 859.62 886.02 860.09
  L 886.02 862.08
  Q 886.02 863.41 884.69 863.41
  L 872.76 863.41
  Q 870.88 863.41 870.88 865.29
  L 870.88 874.59
  Q 870.88 875.24 871.54 875.24
  L 889.20 875.24
  Q 889.76 875.24 890.13 875.67
  Q 890.62 876.25 890.39 877.30
  Z"
/>
<path fill="#f96014" d="
  M 702.09 845.21
  Q 704.50 845.21 705.68 848.10
  Q 711.96 863.48 718.40 877.97
  Q 719.06 879.46 717.43 879.46
  L 715.99 879.46
  Q 714.73 879.46 714.10 878.37
  L 710.47 872.08
  A 1.17 1.15 73.7 0 0 709.44 871.51
  Q 705.78 871.60 702.12 871.60
  Q 698.46 871.61 694.80 871.53
  A 1.17 1.15 -73.8 0 0 693.78 872.10
  L 690.16 878.40
  Q 689.54 879.49 688.28 879.50
  L 686.84 879.50
  Q 685.21 879.50 685.86 878.01
  Q 692.26 863.51 698.50 848.11
  Q 699.67 845.22 702.09 845.21
  Z
  M 695.85 865.67
  A 1.54 1.54 0.0 0 0 697.26 867.80
  L 706.94 867.92
  A 1.54 1.54 0.0 0 0 708.39 865.83
  L 703.70 853.64
  A 1.54 1.54 0.0 0 0 700.84 853.61
  L 695.85 865.67
  Z"
/>
<path fill="#083f75" d="
  M 890.39 877.30
  L 890.35 877.95
  L 890.39 877.30
  Z"
/>
</svg>
